<svg xmlns="http://www.w3.org/2000/svg"><path d="M22.7681 6.99921L12.9999.468002 3.23169 6.99921V25.5866H22.7681V6.99921zM14.7939 24.0266h-3.588v-3.7154h3.588v3.7154zm6.4142 0h-4.8542v-5.2754H9.64589v5.2754h-4.8542V7.83121L12.9999 2.34l8.2082 5.49121V24.0266z"/><path d="M6.9082 12.1082h5.6836V7.45938H6.9082v4.64882zm1.56-3.08882h2.5636v1.52882H8.4682V9.01938zm10.6236-1.56h-5.6836v4.64882h5.6836V7.45938zm-1.56 3.08882h-2.5636V9.01938h2.5636v1.52882zm-10.6236 7.28h5.6836v-4.6488H6.9082v4.6488zm1.56-3.0888h2.5636v1.5288H8.4682v-1.5288zm10.6236-1.56h-5.6836v4.6488h5.6836v-4.6488zm-1.56 3.0888h-2.5636v-1.5288h2.5636v1.5288z"/></svg>