<svg xmlns="http://www.w3.org/2000/svg" viewBox="300.035 200 48 48">
  <defs/>
  <path fill="#edf2f7" d="M300.035 200h48v48h-48z"/>
  <g fill="#201D9F">
    <path d="M335.5 216.281L324 209l-11.5 7.281V237h23v-20.719zm-9.388 18.98h-4.224v-4.141h4.224v4.141zm7.551 0h-5.714v-5.88h-7.898v5.88h-5.714V217.21l9.663-6.122 9.663 6.122v18.052z"/>
    <path d="M316.828 221.976h6.692v-5.182h-6.692v5.182zm1.836-3.443h3.019v1.704h-3.019v-1.704zM331.172 216.794h-6.692v5.182h6.692v-5.182zm-1.836 3.443h-3.019v-1.704h3.019v1.704zM316.828 228.352h6.692v-5.182h-6.692v5.182zm1.836-3.443h3.019v1.704h-3.019v-1.704zM331.172 223.17h-6.692v5.182h6.692v-5.182zm-1.836 3.443h-3.019v-1.704h3.019v1.704z"/>
  </g>
</svg>
