<svg width="12" height="12" viewBox="0 0 12 12" fill="none" xmlns="http://www.w3.org/2000/svg">
<path d="M2.15999 11.7597H9.83999C10.3492 11.7597 10.8376 11.5575 11.1976 11.1974C11.5577 10.8373 11.76 10.349 11.76 9.83975V2.15975C11.76 1.65053 11.5577 1.16217 11.1976 0.802101C10.8376 0.442031 10.3492 0.239746 9.83999 0.239746H2.15999C1.65077 0.239746 1.16242 0.442031 0.802345 0.802101C0.442275 1.16217 0.23999 1.65053 0.23999 2.15975V9.83975C0.23999 10.349 0.442275 10.8373 0.802345 11.1974C1.16242 11.5575 1.65077 11.7597 2.15999 11.7597ZM9.83999 10.7997H2.15999C1.90538 10.7997 1.6612 10.6986 1.48117 10.5186C1.30113 10.3385 1.19999 10.0944 1.19999 9.83975V4.07975H10.8V9.83975C10.8 10.0944 10.6988 10.3385 10.5188 10.5186C10.3388 10.6986 10.0946 10.7997 9.83999 10.7997ZM2.15999 1.19975H9.83999C10.0946 1.19975 10.3388 1.30089 10.5188 1.48092C10.6988 1.66096 10.8 1.90514 10.8 2.15975V3.11975H1.19999V2.15975C1.19999 1.90514 1.30113 1.66096 1.48117 1.48092C1.6612 1.30089 1.90538 1.19975 2.15999 1.19975Z" fill="#201D9F"/>
<path d="M3.12002 7.91995C3.38511 7.91995 3.60002 7.70505 3.60002 7.43996C3.60002 7.17486 3.38511 6.95996 3.12002 6.95996C2.85492 6.95996 2.64001 7.17486 2.64001 7.43996C2.64001 7.70505 2.85492 7.91995 3.12002 7.91995Z" fill="#201D9F"/>
<path d="M3.12002 9.83988C3.38511 9.83988 3.60002 9.62498 3.60002 9.35988C3.60002 9.09479 3.38511 8.87988 3.12002 8.87988C2.85492 8.87988 2.64001 9.09479 2.64001 9.35988C2.64001 9.62498 2.85492 9.83988 3.12002 9.83988Z" fill="#201D9F"/>
<path d="M5.04 7.91995C5.3051 7.91995 5.52 7.70505 5.52 7.43996C5.52 7.17486 5.3051 6.95996 5.04 6.95996C4.7749 6.95996 4.56 7.17486 4.56 7.43996C4.56 7.70505 4.7749 7.91995 5.04 7.91995Z" fill="#201D9F"/>
<path d="M5.04 9.83988C5.3051 9.83988 5.52 9.62498 5.52 9.35988C5.52 9.09479 5.3051 8.87988 5.04 8.87988C4.7749 8.87988 4.56 9.09479 4.56 9.35988C4.56 9.62498 4.7749 9.83988 5.04 9.83988Z" fill="#201D9F"/>
<path d="M6.95998 7.91995C7.22508 7.91995 7.43998 7.70505 7.43998 7.43996C7.43998 7.17486 7.22508 6.95996 6.95998 6.95996C6.69488 6.95996 6.47998 7.17486 6.47998 7.43996C6.47998 7.70505 6.69488 7.91995 6.95998 7.91995Z" fill="#201D9F"/>
<path d="M6.95998 9.83988C7.22508 9.83988 7.43998 9.62498 7.43998 9.35988C7.43998 9.09479 7.22508 8.87988 6.95998 8.87988C6.69488 8.87988 6.47998 9.09479 6.47998 9.35988C6.47998 9.62498 6.69488 9.83988 6.95998 9.83988Z" fill="#201D9F"/>
<path d="M8.88003 7.91995C9.14513 7.91995 9.36003 7.70505 9.36003 7.43996C9.36003 7.17486 9.14513 6.95996 8.88003 6.95996C8.61493 6.95996 8.40002 7.17486 8.40002 7.43996C8.40002 7.70505 8.61493 7.91995 8.88003 7.91995Z" fill="#201D9F"/>
<path d="M5.04 6.00004C5.3051 6.00004 5.52 5.78513 5.52 5.52004C5.52 5.25494 5.3051 5.04004 5.04 5.04004C4.7749 5.04004 4.56 5.25494 4.56 5.52004C4.56 5.78513 4.7749 6.00004 5.04 6.00004Z" fill="#201D9F"/>
<path d="M6.95998 6.00004C7.22508 6.00004 7.43998 5.78513 7.43998 5.52004C7.43998 5.25494 7.22508 5.04004 6.95998 5.04004C6.69488 5.04004 6.47998 5.25494 6.47998 5.52004C6.47998 5.78513 6.69488 6.00004 6.95998 6.00004Z" fill="#201D9F"/>
<path d="M8.88003 6.00004C9.14513 6.00004 9.36003 5.78513 9.36003 5.52004C9.36003 5.25494 9.14513 5.04004 8.88003 5.04004C8.61493 5.04004 8.40002 5.25494 8.40002 5.52004C8.40002 5.78513 8.61493 6.00004 8.88003 6.00004Z" fill="#201D9F"/>
</svg>
