<svg xmlns="http://www.w3.org/2000/svg" fill="#000" viewBox="0 0 20 21">
  <defs/>
  <path d="M1.422 12.204l.93.428a.818.818 0 01.426 1.03l-.364.963a2.313 2.313 0 00.274 2.17 2.343 2.343 0 002.778.868l.958-.365a.683.683 0 01.286-.05.797.797 0 01.738.478l.426.934c.187.414.489.765.87 1.01a2.348 2.348 0 003.42-1.01l.436-.94a.813.813 0 011.024-.428l.958.377c.268.106.552.163.84.17a2.406 2.406 0 002.342-2.099c.047-.38.003-.766-.13-1.125l-.374-.962a.826.826 0 01.426-1.025l.93-.428a2.375 2.375 0 000-4.31l-.93-.428a.818.818 0 01-.426-1.033l.364-.962a2.313 2.313 0 00-.274-2.17 2.343 2.343 0 00-2.778-.868l-.958.366a.683.683 0 01-.286.05.797.797 0 01-.728-.472l-.436-.935A2.332 2.332 0 0010.02.048a2.392 2.392 0 00-2.184 1.406l-.436.93a.813.813 0 01-.738.479.731.731 0 01-.276-.05l-.958-.366a2.338 2.338 0 00-2.778.868 2.361 2.361 0 00-.274 2.17l.364.962a.825.825 0 01-.426 1.025l-.93.428A2.359 2.359 0 000 10.046a2.383 2.383 0 001.422 2.158zm.634-2.897l.93-.428c.543-.25.972-.697 1.2-1.251a2.38 2.38 0 00.028-1.737l-.364-.963a.785.785 0 01.09-.741.788.788 0 01.958-.297l.958.365c.264.102.545.156.828.157a2.364 2.364 0 002.144-1.398l.426-.935A.803.803 0 0110 1.607a.798.798 0 01.738.478l.418.929c.186.416.487.77.868 1.019.38.25.824.384 1.278.387.283 0 .564-.053.828-.157l.958-.365a.826.826 0 01.958.297.781.781 0 01.09.741l-.364.963a2.393 2.393 0 00.036 1.73c.227.552.653.998 1.192 1.25l.93.428a.802.802 0 01.47.74.806.806 0 01-.476.74l-.924.43c-.543.25-.972.697-1.2 1.251a2.38 2.38 0 00-.028 1.737l.364.963a.785.785 0 01-.09.741.789.789 0 01-.958.298l-.958-.366a2.332 2.332 0 00-.828-.157 2.364 2.364 0 00-2.146 1.395l-.426.934a.803.803 0 01-1.468-.006l-.434-.928a2.38 2.38 0 00-2.146-1.39 2.25 2.25 0 00-.828.156l-.958.366a.826.826 0 01-.958-.298.782.782 0 01-.09-.741l.364-.963a2.393 2.393 0 00-.033-1.735c-.227-.553-.654-1-1.195-1.252l-.928-.432a.802.802 0 01-.478-.744.806.806 0 01.478-.74z"/>
  <path d="M9.984 13.424c.665 0 1.315-.199 1.867-.57a3.391 3.391 0 00.507-5.196 3.357 3.357 0 00-3.663-.732A3.365 3.365 0 007.186 8.17a3.389 3.389 0 00-.566 1.877c.003.895.359 1.752.989 2.385.63.633 1.484.99 2.375.992zm0-5.194a1.794 1.794 0 011.663 1.117 1.816 1.816 0 01-.39 1.97A1.797 1.797 0 118.719 8.77c.336-.337.79-.528 1.265-.532V8.23z"/>
</svg>
