<svg xmlns="http://www.w3.org/2000/svg" fill="#000" viewBox="0 0 14 14">
  <defs/>
  <path d="M13.245 9.78L11.618 8.15c-.32-.333-.71-.508-1.12-.508-.41 0-.8.175-1.131.504l-.848.848a10.642 10.642 0 00-.122-.062c-.1-.049-.195-.098-.277-.15-.86-.546-1.644-1.26-2.397-2.184-.332-.42-.562-.772-.729-1.12.215-.2.417-.405.609-.602l.247-.25c.34-.338.518-.733.518-1.14 0-.41-.179-.806-.518-1.142l-.808-.808c-.091-.092-.179-.18-.27-.275l-.003-.004a15.142 15.142 0 00-.557-.551C3.89.39 3.504.224 3.097.224c-.405 0-.795.168-1.127.486L.952 1.728a2.297 2.297 0 00-.692 1.48c-.055.683.07 1.405.39 2.268.485 1.315 1.213 2.532 2.294 3.83a14.137 14.137 0 004.694 3.677l.002.001c.698.331 1.634.72 2.669.786h.012c.06.003.122.006.187.006.743 0 1.341-.257 1.83-.786.008-.01.019-.02.03-.036.136-.163.292-.316.459-.476l.038-.037c.156-.149.28-.272.389-.385.326-.34.498-.736.497-1.144 0-.41-.175-.802-.506-1.133zM1.388 3.302c.027-.31.143-.558.363-.778L2.76 1.518c.11-.107.227-.164.335-.164.131 0 .247.09.321.165l.008.008c.154.142.301.293.457.451l.071.073c.047.048.095.095.142.145.047.046.093.094.14.142l.81.81c.085.085.186.214.186.342 0 .129-.1.257-.185.342l-.128.129-.125.127-.058.057c-.228.231-.445.45-.68.66l-.023.023c-.354.354-.232.72-.192.84.002.01.005.017.008.025l.005.014c.222.53.525 1.025.985 1.603l.001.002c.827 1.02 1.7 1.814 2.669 2.43.107.07.215.125.32.177l.059.03.001.001c.1.05.195.099.277.15l.025.014.025.014c.12.062.244.093.369.093.21 0 .402-.085.569-.253l1.014-1.014c.08-.08.2-.173.33-.173.135 0 .251.104.31.167l.003.003 1.637 1.635c.236.235.232.443-.01.695l-.003.002c-.115.123-.237.241-.351.352l-.033.031c-.184.178-.372.361-.549.572-.268.287-.572.414-.988.414-.038 0-.082-.003-.126-.005-.849-.055-1.649-.39-2.252-.677a12.964 12.964 0 01-4.317-3.383C2.822 7.391 2.155 6.28 1.713 5.09c-.261-.703-.366-1.272-.325-1.786z"/>
</svg>
