<svg xmlns="http://www.w3.org/2000/svg" fill="#000" viewBox="0 0 32 32">
  <defs/>
  <path d="M3.99 26.614a3.1 3.1 0 104.058-2.934v-4.746a3.098 3.098 0 000-5.89V8.32a3.1 3.1 0 10-1.92 0v4.736a3.098 3.098 0 000 5.891v4.733a3.104 3.104 0 00-2.138 2.934zm3.101 1.181a1.18 1.18 0 11.45-.089 1.18 1.18 0 01-.453.09h.003zm0-23.613a1.18 1.18 0 11-.003 0h.003zm0 10.628a1.18 1.18 0 11-1.095.735 1.181 1.181 0 011.092-.739l.003.004zM12.144.883v9.005H24.81V.883H12.144zM22.89 7.968h-8.826V2.803h8.826v5.165zM28.01 11.485H12.144v8.995H28.01v-8.995zm-1.92 7.075H14.064v-5.155H26.09v5.155zM24.81 22.112H12.144v9.005H24.81v-9.005zm-1.92 7.085h-8.826v-5.165h8.826v5.165z"/>
</svg>
