<svg xmlns="http://www.w3.org/2000/svg" fill="#000" viewBox="0 0 34 34">
  <defs/>
  <path d="M11.39 13.26a3.74 3.74 0 00-3.604 2.72H3.57v2.04h4.216a3.74 3.74 0 007.208 0H30.43v-2.04H14.994a3.74 3.74 0 00-3.604-2.72zm0 5.44a1.7 1.7 0 110-3.4 1.7 1.7 0 010 3.4zM22.61 3.91a3.74 3.74 0 00-3.604 2.72H3.57v2.04h15.436a3.74 3.74 0 007.208 0h4.216V6.63h-4.216a3.74 3.74 0 00-3.604-2.72zm0 5.44a1.7 1.7 0 110-3.4 1.7 1.7 0 010 3.4zM22.61 22.61a3.74 3.74 0 00-3.604 2.72H3.57v2.04h15.436a3.74 3.74 0 007.208 0h4.216v-2.04h-4.216a3.74 3.74 0 00-3.604-2.72zm0 5.44a1.7 1.7 0 110-3.4 1.7 1.7 0 010 3.4z"/>
</svg>
