<svg xmlns="http://www.w3.org/2000/svg" fill="#000" viewBox="0 0 14 14">
  <defs/>
  <path d="M12.936 1.204a.717.717 0 00-.714.714v1.008l-.56-.56A6.546 6.546 0 006.986.406c-1.764 0-3.444.7-4.69 1.946A6.659 6.659 0 00.364 7.448a.716.716 0 00.7.672h.042a.707.707 0 00.658-.756A5.248 5.248 0 013.29 3.36a5.205 5.205 0 017.378 0l.56.56H10.22c-.392 0-.7.308-.7.7 0 .392.322.714.714.714h2.716a.717.717 0 00.714-.714V1.904a.726.726 0 00-.728-.7z"/>
  <path d="M9.324 6.972L7.658 6.51V4.06a.717.717 0 00-.714-.714.717.717 0 00-.714.714v2.982c0 .322.21.602.518.686l2.184.616c.07.014.126.028.196.028.308 0 .588-.21.686-.518a.701.701 0 00-.49-.882zM5.32 12.054a4.977 4.977 0 01-.966-.434.625.625 0 00-.868.238c-.182.308-.07.7.238.868.378.224.784.406 1.204.532a.51.51 0 00.196.028.63.63 0 00.602-.434.645.645 0 00-.406-.798zM2.254 9.408a.632.632 0 00-.854-.28.632.632 0 00-.28.854c.196.392.434.77.7 1.106a.644.644 0 00.504.238c.14 0 .28-.042.392-.14a.644.644 0 00.112-.896 4.778 4.778 0 01-.574-.882zM12.936 7.238a.624.624 0 00-.714.546c-.056.35-.14.7-.252 1.036-.112.336.056.7.392.812.07.028.14.042.21.042a.65.65 0 00.602-.42c.14-.42.252-.84.308-1.274.042-.378-.196-.7-.546-.742zM10.948 10.542a3.71 3.71 0 01-.224.238 6.098 6.098 0 01-.56.49.636.636 0 00.378 1.148c.14 0 .266-.042.378-.126.238-.182.462-.378.686-.602a5.42 5.42 0 00.28-.294.626.626 0 00-.056-.896.598.598 0 00-.882.042zM8.358 12.138c-.336.098-.7.154-1.05.168a.65.65 0 00-.602.672.64.64 0 00.63.602h.042a6.824 6.824 0 001.302-.21.642.642 0 00.448-.784.639.639 0 00-.77-.448z"/>
</svg>
