<svg xmlns="http://www.w3.org/2000/svg" viewBox="221.426 98.782 109 98.733">
  <defs/>
  <path fill="#F9FAFC" stroke="#E2E8F0" d="M315.71 152.463v-.492a47.9 47.9 0 006.255-.171c1.108-.105 2.15-.25 3.028-.436.516-.11.994-.236 1.4-.384l1.975 36.65h-2.83l-9.828-35.167z"/>
  <path fill="#F9FAFC" stroke="#E2E8F0" d="M318.496 164.918l-2.65 4.636-.786-17.084 4.598.15-1.163 12.298z"/>
  <path fill="#E2E8F0" fill-opacity=".2" stroke="#E2E8F0" d="M230.568 153.997V98.782h33.935l12.442 12.443v42.772h-46.377z"/>
  <path fill="#fff" stroke="#E2E8F0" d="M238.926 106.782a2 2 0 11-4 0 2 2 0 014 0zm0 21a2 2 0 11-4 0 2 2 0 014 0zm-.992 10.41v-.478h31.646v.478h-31.646z"/>
  <path fill="none" stroke="#E2E8F0" stroke-linecap="round" stroke-linejoin="round" d="M311.85 138.471c1.338-6.541 4.228-13.226 9.659-12.99m7.271 10.197c.668 6.303-.66 13.374-1.649 14.337-1.749 1.702-14.63 2.019-15.872.595-.444-.508-.559-4.152-.006-8.513m12.994-15.885c1.567.862 2.668 2.435 3.406 4.378"/>
  <path fill="#fff" stroke="#E2E8F0" d="M221.426 148.292v31.994c0 6.627 5.373 12 12 12h71c6.627 0 12-5.373 12-12v-47c0-6.565-5.276-11.915-11.841-11.962-8.308-.06-17.007-.067-18.984.12-3.786.358-1.97 9.54-8.473 12.165-8.573 3.46-26.635 3.086-43.703 2.81-6.627-.107-12 5.246-12 11.873z"/>
  <path fill="#fff" stroke="#E2E8F0" stroke-linecap="round" stroke-linejoin="round" d="M307.926 123.286c1.38 0 2.5-.896 2.5-2 0-1.105-1.12-2-2.5-2s-2.5.895-2.5 2c0 1.104 1.12 2 2.5 2z"/>
  <rect width="21" height="1" x="21.5" y="6.5" fill="#F5F6F8" stroke="#E2E8F0" rx=".5" transform="translate(220.426 98.282)"/>
  <rect width="21" height="1" x="21.5" y="27.5" fill="#F5F6F8" stroke="#E2E8F0" rx=".5" transform="translate(220.426 98.282)"/>
  <rect width="16" height="1" x="21.5" y="10.5" fill="#F5F6F8" stroke="#E2E8F0" rx=".5" transform="translate(220.426 98.282)"/>
  <rect width="16" height="1" x="21.5" y="31.5" fill="#F5F6F8" stroke="#E2E8F0" rx=".5" transform="translate(220.426 98.282)"/>
  <path fill="#fff" stroke="#E2E8F0" d="M272.926 116.782a2 2 0 11-4 0 2 2 0 014 0z"/>
  <rect width="16" height="1" x="29.5" y="18.5" fill="#fff" stroke="#E2E8F0" rx=".5" transform="translate(220.426 98.282)"/>
  <path fill="#fff" stroke="#E2E8F0" stroke-linecap="round" stroke-linejoin="round" d="M324.972 122.402s-.933 4.848-1.038 5.535c-.065.417-1.6.403-2.752.11m.619-3.513a3.121 3.121 0 01-.537-.052c-2.209-.417-3.533-3.237-2.957-6.309a7.135 7.135 0 011.49-3.267m6.246 3.77a1.307 1.307 0 011.044 1.319 1.306 1.306 0 01-2.232.889m-13.603 21.213c2.746.803 6.2 1.536 9.04 1.28.523.037 2.165-1.358 3.101-2.244-.016-.071-.144-.15-.164-.169-.146-.146-.339-.24-.493-.395-.018-.018-.148-.099-.173-.074-.043.043-.174-.174-.222-.222-.033-.033-.321-.161-.321-.222 0-.145-.4-.376-.493-.469-.097-.097-.095-.218-.173-.296-.383-.383-.842-.768-1.208-1.134-.247-.247-.4-.474-.592-.666a12.06 12.06 0 00-.173-.148c-.782.468-1.373 1.17-1.775 1.981-1.081-.195-6.42-1.157-10.304-1.12a3.266 3.266 0 00-1.544-.933c-1.344-.39-2.646.025-2.907.926-.261.901.617 1.947 1.962 2.337.71.209 1.408.187 1.947-.01a43.672 43.672 0 004.49 1.578"/>
  <path fill="none" stroke="#E2E8F0" stroke-linecap="round" stroke-linejoin="round" d="M324.314 131.022c1.69-.754 3.391-.91 4.503.342 2.402 2.706-3.498 10.488-4.636 10.166-1.339-.379-5.416-4.194-5.448-5.515m8.787-16.36c.772-.387 1.462-3.845-.062-5.266-1.487-1.384-6.443-2.994-8.363-4.894m.913 3.378c-.442-.433-1.66-2.754-1.826-3.359m.189 3.946c-.454-.66-.68-1.714-.743-2.416"/>
  <path d="M321.243 118.163c0-.038.009-.097.048-.158.064-.095.156-.148.251-.143.124 0 .21.078.252.143.04.063.049.12.049.156a.313.313 0 01-.301.301.31.31 0 01-.299-.301z"/>
  <path fill="#fff" stroke="#E2E8F0" stroke-linecap="round" stroke-linejoin="round" d="M320.238 117.47c-.069.38-.448 1.393-1.012 2.25m1.174 1.777a.978.978 0 00.782-.507m4.51 67.142v2.83l4.734 6.553-2.367-7.83v-1.553"/>
</svg>
