<svg xmlns="http://www.w3.org/2000/svg" fill="#000" viewBox="0 0 34 34">
  <defs/>
  <path d="M31.008 6.154H18.054a3.793 3.793 0 00-3.604-2.55h-5.1c-1.666 0-3.06 1.054-3.604 2.55H2.992c-.714 0-1.292.578-1.292 1.292v21.692c0 .714.578 1.292 1.292 1.292h28.05c.714 0 1.292-.578 1.292-1.292V7.446c-.034-.714-.612-1.292-1.326-1.292zm-21.658 0h5.1a1.291 1.291 0 110 2.584h-5.1a1.291 1.291 0 110-2.584zm20.4 21.692H4.25V8.704h1.496a3.793 3.793 0 003.604 2.55h5.1c1.666 0 3.06-1.054 3.604-2.55H29.75v19.142z"/>
  <path d="M17 12.546a6.385 6.385 0 00-6.392 6.392c0 3.536 2.856 6.358 6.392 6.358a6.385 6.385 0 006.392-6.392c0-3.536-2.856-6.358-6.392-6.358zm0 10.2a3.802 3.802 0 01-3.808-3.808c0-2.108 1.7-3.808 3.808-3.808 2.108 0 3.808 1.7 3.808 3.808 0 2.108-1.7 3.808-3.808 3.808z"/>
</svg>
