<svg xmlns="http://www.w3.org/2000/svg" fill="none" viewBox="0 0 404 413">
  <defs/>
  <path fill="#F8F8F8" d="M225.563 116.256l-5.486-28.625-4.671-25.209v-.035c-.041.096-.076.198-.117.289.573 2.96 9.869 51.207 10.071 53.656l.203-.076zM216.829 56.45v-.036a.414.414 0 010 .087v-.051zM234.094 47.09c-.004-.254.01-.508.04-.76-.927 1.552-2.133 5.07-2.33 5.72l.035.075 2.255-5.034z"/>
  <path fill="#A0AEC0" d="M271.619 204.936c.435 4.147 9.59 182.973 9.59 182.973h-9.59l-46.634-168.376 46.634-14.597z"/>
  <path fill="#A0AEC0" d="M276.811 186.942c1.21 24.433-9.19 44.444-27.251 44.444-24.793 0-57.616-15.818-66.649-24.747-2.255 6.673-34.232 90.713-34.232 90.713h-13.242s8.485-97.851 24.393-122.948c5.233-6.976 40.488-6.718 62.064-1.485 17.129 10.844 49.005 15.686 54.917 14.023z"/>
  <path stroke="#A0AEC0" stroke-linecap="round" stroke-linejoin="round" stroke-width="2.5" d="M213.957 41.676a3.092 3.092 0 011.864-.436c1.941.137 5.112 5.267 5.112 9.42 0 4.152-1.17 5.714-.816 8.73.355 3.017 8.03 43.922 8.03 46.417a34.364 34.364 0 004.499-.289"/>
  <path stroke="#A0AEC0" stroke-linecap="round" stroke-miterlimit="10" stroke-width="2.5" d="M255.22 86.404c7.761.872 13.349 6.165 17.3 13.912M229.104 114.877c3.546-10.951 8.379-20.473 14.651-25.274M276.984 112.362c7.746 29.021 2.72 72.182-.172 74.581-4.378 3.63-51.041-8.62-54.917-14.024-1.611-2.231-1.282-17.497 1.611-34.613"/>
  <path stroke="#A0AEC0" stroke-linecap="round" stroke-linejoin="round" stroke-width="2.5" d="M239.525 110.912c-2.062.7-14.155 5.42-14.155 5.42-.202-2.434-9.498-50.7-10.071-53.656a24.166 24.166 0 001.707-9.278c0-7.925-3.217-14.359-7.183-14.359-3.967 0-7.179 6.434-7.179 14.359a23.762 23.762 0 001.875 9.663c-.446 6.033-4.449 63.32 3.718 71.488 8.329 8.335 28.132 1.358 40.939-4.345"/>
  <path fill="#A0AEC0" d="M230.546 55.668l-7.59-2.016-1.408 5.307 7.59 2.016 1.408-5.307z"/>
  <path stroke="#A0AEC0" stroke-linecap="round" stroke-miterlimit="10" stroke-width="2.5" d="M267.374 99.028c4.331.507 7.887 2.028 9.463 5.07 5.72 11.114-16.931 31.135-23.198 29.645-6.266-1.491-16.373-23.87-14.484-27.886.537-1.15 3.41-2.677 7.356-4.01"/>
  <path stroke="#A0AEC0" stroke-linecap="round" stroke-linejoin="round" stroke-width="2.5" d="M243.755 89.603V86.46M255.22 80.583v15.099c0 .912-2.701 1.495-5.477 1.582M257.834 75.731a24.62 24.62 0 01-2.614 4.852M248.366 86.104a9.543 9.543 0 01-3.04.507c-8.268 0-14.965-10.844-14.965-24.22a36.918 36.918 0 011.423-10.327"/>
  <path stroke="#A0AEC0" stroke-linecap="round" stroke-linejoin="round" stroke-width="2.5" d="M255.564 71.574c.294 2.763 1.338 4.157 2.27 4.157 1.099 0 3.997-.76 5.861-.76 18.309 0 39.81 18.916 81.058 18.916 21.546 0 55.357-5.44 55.357-37.108 0-17.1-6.15-37.766-38.659-37.766-20.645 0-35.108 10.14-52.07 10.14-21.784 0-30.183-7.894-45.235-7.894-10.72 0-34.844 6.216-34.844 22.5 0 6.186 1.935 7.98 2.533 8.3.197-.659 1.403-4.167 2.33-5.719a9.609 9.609 0 001.834 6.368M252.413 62.706c.425.483.821.991 1.186 1.521"/>
  <path stroke="#A0AEC0" stroke-linecap="round" stroke-linejoin="round" stroke-width="2.5" d="M251.811 64.942a3.82 3.82 0 015.864 2.338 3.823 3.823 0 01-2.11 4.294"/>
  <path fill="#A0AEC0" d="M217.006 53.398a25.03 25.03 0 01-1.373 8.456c4.311.507 7.432.877 7.432.877l2.974-12.03s-4.398-1.831-9.874-4.057c.571 2.206.853 4.476.841 6.754zM202.643 53.398c0-4.477 1.013-8.472 2.635-11.104-4.727-1.86-8.704-3.371-9.834-3.655-3.288-.811-8.105 19.068-4.909 19.864 1.292.32 6.85 1.065 13.015 1.846a26.229 26.229 0 01-.907-6.951z"/>
  <path stroke="#A0AEC0" stroke-linecap="round" stroke-linejoin="round" stroke-width="2.5" d="M147.069 296.901v11.094h-29.161l19.793-7.002v-4.092M280.702 387.488v11.093h-26.121l17.726-7.002v-4.091"/>
  <path fill="#A0AEC0" d="M25.345 375.327v-13.635l39.366-53.027h17.587v52.444h10.715v14.218H82.298v16.549H65.759v-16.549H25.345zm41.695-47.433l-24.924 33.215H67.04v-33.215zM102.254 350.037c0 27.893 10.482 41.839 31.446 41.839 11.104 0 19.101-3.729 23.993-11.188 4.892-7.459 7.337-17.675 7.337-30.651 0-12.897-2.445-23.075-7.337-30.534-4.892-7.459-12.889-11.188-23.993-11.188-20.964 0-31.446 13.907-31.446 41.722zm46.587 0c0 8.469-1.048 14.996-3.144 19.58-2.019 4.506-6.018 6.759-11.997 6.759-6.056 0-10.132-2.253-12.229-6.759-2.019-4.584-3.028-11.111-3.028-19.58 0-8.391 1.009-14.839 3.028-19.346 2.097-4.584 6.173-6.876 12.229-6.876 5.979 0 9.978 2.292 11.997 6.876 2.096 4.507 3.144 10.955 3.144 19.346zM174.911 375.327v-13.635l39.366-53.027h17.587v52.444h10.715v14.218h-10.715v16.549h-16.538v-16.549h-40.415zm41.696-47.433l-24.924 33.215h24.924v-33.215z"/>
</svg>
