<svg xmlns="http://www.w3.org/2000/svg" fill="#000" viewBox="0 0 17 18">
  <defs/>
  <path d="M16.578 6.678l-2.682-1.89v-3.78a.56.56 0 00-.558-.558H3.474a.56.56 0 00-.558.558V4.77L.234 6.678A.571.571 0 000 7.146v9.846a.56.56 0 00.558.558h15.696a.56.56 0 00.558-.558V7.128c0-.18-.09-.342-.234-.45zm-11.16 4.59l-4.302 4.374V8.226l4.302 3.042zm.936.648l1.728 1.224a.54.54 0 00.648 0l1.728-1.224 4.428 4.5H1.926l4.428-4.5zm5.04-.648l4.302-3.042v7.416l-4.302-4.374zm3.888-4.14l-1.386.972V6.174l1.386.954zM12.78 1.584V8.91l-4.374 3.078-4.374-3.096V1.584h8.748zM2.916 8.1l-1.368-.972 1.368-.972V8.1z"/>
  <path d="M6.372 6.624h1.404v1.404a.56.56 0 00.558.558.56.56 0 00.558-.558V6.624h1.404a.56.56 0 00.558-.558.56.56 0 00-.558-.558H8.892V4.104a.56.56 0 00-.558-.558.56.56 0 00-.558.558v1.404H6.372a.56.56 0 00-.558.558.56.56 0 00.558.558z"/>
</svg>
