<svg xmlns="http://www.w3.org/2000/svg" fill="#000" viewBox="0 0 32 32">
  <defs/>
  <path d="M23.104 6.784a10.336 10.336 0 00-3.52-2.304A3.648 3.648 0 0016 1.44a3.52 3.52 0 00-2.56 1.088 3.616 3.616 0 00-1.024 1.952 10.112 10.112 0 00-6.464 9.504v4.672H3.776v7.616h7.232a5.056 5.056 0 009.984 0h7.232v-7.616h-2.176v-4.672a10.079 10.079 0 00-2.944-7.2zm-15.232 7.2A8.16 8.16 0 0113.6 6.112l.768-.256-.096-.768A1.76 1.76 0 0116 3.36a1.728 1.728 0 011.728 1.728l-.096.768.768.256a8.192 8.192 0 015.728 7.872v4.672H7.872v-4.672zM16 28.64a3.104 3.104 0 01-3.04-2.368h6.08A3.104 3.104 0 0116 28.64zm10.304-4.288H5.696v-3.776h20.608v3.776z"/>
</svg>
