<svg xmlns="http://www.w3.org/2000/svg" fill="none" viewBox="0 0 314 378">
  <defs/>
  <g clip-path="url(#clip0)">
    <path fill="#fff" d="M225.056 232.432c-.848-1.546-26.459-27.072-36.953-37.507l-.438.877v.043c-2.138 4.3-4.334 8.706-6.612 13.151a1424.002 1424.002 0 01-13.793 26.436v.029l-.842 1.575c-12.796 23.812-24.417 43.477-28.091 45.336-3.246 1.628-94.02-14.769-94.02-14.769l3.187-17.137 76.958-1.065 4.715-20.267c.053-.241.111-.482.163-.723.261-1.102.521-2.224.785-3.37.073-.294.14-.593.208-.891.168-.723.337-1.445.505-2.177.347-1.483.697-2.99 1.05-4.521.063-.26.12-.52.183-.776.092-.404.183-.804.279-1.208.371-1.604.752-3.231 1.127-4.864l.622-2.658c.096-.424.192-.843.293-1.266.193-.848.39-1.69.588-2.538.197-.847.4-1.734.602-2.595.106-.482.217-.93.323-1.392l1.305-5.639.077-.332c.077-.318.149-.636.221-.963l.419-1.806.597-2.571.554-2.408c.097-.4.188-.804.28-1.194v-.029l.245-1.064c.198-.838.385-1.662.573-2.471.154-.669.308-1.324.458-1.974l.703-3.053c.082-.351.164-.703.241-1.045l.043-.168c.072-.333.149-.655.222-.963.158-.689.313-1.353.481-1.989 0-.116.048-.222.077-.337.096-.429.198-.852.289-1.257l.053-.226c.034-.159.072-.318.106-.482l.193-.823c.303-1.334.573-2.495.794-3.467v-.082c.058-.265.116-.515.169-.751l.029-.116c-4.046-4.242-11.818-28.025-13.485-51.683-4.055 3.934-7.854 6.496-9.588 6.496-1.113 0-2.74-.727-4.619-1.926-5.114 4.102-14.804 11.874-16.923 13.483-2.89 2.186-43.126 22.873-46.328 24.327a2.408 2.408 0 01-1.575.111c-.41 2.359-1.999 4.849-4.522 6.669a11.612 11.612 0 01-6.049 2.234c-23.448 27.168-43.261 50.422-39.774 69.096 1.676 8.807 8.553 16.574 18.69 23.783l4.151-2.976 20.304-2.89-2.832 16.272-2.07 1.15c18.02 9.212 40.15 17.865 61.431 27.169 45.462 19.95 86.922 42.856 124.596 33.89a74.047 74.047 0 008.568-2.615c-1.137-13.348-7.97-93.321-8.943-95.103zM264.035 107.97c-12.704-.173-30.764-.655-32.045-1.031-1.445-.419-17.93-6.072-26.3-8.942 8.838 16.546 13.899 33.669 15.257 39.409-.058.145-.13.289-.202.434 7.604 12.962 43.699 85.347 44.027 88.631.274 2.74-6.8 62.811-10.013 89.898 24.658-17.586 44.022-47.889 49.373-79.656 7.195-42.813-11.062-88.357-40.097-128.743zM83.513 118.626c1.035-1.262 11.558-13.001 15.988-17.947-1.31-2.205-1.989-4.131-1.675-5.436 1.247-5.225 23.308-24.52 37.891-19.262 2.528-4.873 6.049-8.773 10.792-11.22.222-5.71-.236-15.014-.833-22.227a27.54 27.54 0 01-.809-1.705c-26.251 14.658-48.322 54.515-75.614 89.783 7.286-5.972 13.696-11.297 14.26-11.986zM173.984 64.044c8.591-6.765 33.624 1.315 35.555 5.297.482 1.011.636 3.072.482 5.672 6.742 3.646 21.72 13.81 24.315 14.61 1.31.4 9.786 2.22 18.782 4.117-21.204-26.195-46.401-48.408-70.042-56.012-3.154 8.302-9.449 14.326-16.658 15.89a73.062 73.062 0 00-.106 8.187 33.756 33.756 0 017.672 2.24z"/>
    <path stroke="#8594AC" stroke-linecap="round" stroke-linejoin="round" stroke-width="3.16" d="M220.75 137.839c7.609 13.002 43.695 85.348 44.022 88.632.357 3.544-11.558 102.952-11.558 102.952h-19.056s-8.038-95.046-9.102-96.991c-.848-1.546-26.459-27.072-36.952-37.507"/>
    <path stroke="#8594AC" stroke-linecap="round" stroke-linejoin="round" stroke-width="3.16" d="M143.994 165.07c-3.217 14.114-19.547 84.332-19.547 84.332l-76.958 1.064-3.183 17.138s90.774 16.372 93.977 14.773c6.573-3.323 38.527-63.563 57.241-102.678"/>
    <path fill="#8594AC" d="M220.75 137.839l-2.702 4.724-.053-.115-4.609 4.093-5.341 3.794-7.291 4.435-8.669 4.334-8.061 3.327-16.634 4.69-8.187 1.108-6.16-.173s-6.742-1.281-9.044-3.005c-2.095 9.192-9.747 42.173-14.833 64.044 4.667-1.17 28.63-1.257 37.207 7.907 10.09-18.78 20.911-40.107 29.151-57.341l-2.095 5.176-.303 1.267-5.023 8.821c6.506 6.472 18.83 18.746 27.45 27.506l33.581-29.283c-10.855-21.991-24.113-48.013-28.384-55.309z"/>
    <path stroke="#8594AC" stroke-linecap="round" stroke-linejoin="round" stroke-width="3.16" d="M99.501 100.679c-4.42 4.931-14.953 16.686-15.989 17.947-1.31 1.604-34.236 28.262-36.273 29.855a1.274 1.274 0 00-.448.747c-2.364-.357-5.225.366-7.744 2.176-4.209 3.034-5.85 7.955-3.66 10.989 2.191 3.034 7.373 3.038 11.558 0 2.52-1.815 4.108-4.305 4.518-6.664a2.372 2.372 0 001.58-.116c3.202-1.445 43.414-22.151 46.328-24.327 2.119-1.589 11.809-9.356 16.923-13.483M205.69 97.997c8.37 2.89 24.874 8.524 26.3 8.942 1.926.564 41.238 1.354 44.282 1.017.106-.213.195-.433.265-.66 2.051 1.497 5.413 2.143 9.015 1.493 5.447-.964 9.367-4.551 8.751-7.975-.617-3.423-5.539-5.393-10.99-4.41a13.364 13.364 0 00-6.805 3.23 19.243 19.243 0 00-.236-1.112s-38.985-8.032-41.898-8.932c-2.591-.8-17.559-10.965-24.316-14.61"/>
    <path stroke="#8594AC" stroke-linecap="round" stroke-linejoin="round" stroke-width="3.16" d="M173.979 64.044c8.591-6.741 33.629 1.32 35.56 5.297 1.695 3.491-.694 19.594-4.773 26.966M135.707 75.948c2.528-4.873 6.049-8.774 10.802-11.22"/>
    <path stroke="#8594AC" stroke-linecap="round" stroke-linejoin="round" stroke-width="3.16" d="M166.311 61.81c33.904 5.441 51.882 63.948 54.636 75.601-5.832 14.157-56.856 37.897-76.225 28.112-3.771-1.926-12.411-27.149-14.202-52.247"/>
    <path stroke="#8594AC" stroke-linecap="round" stroke-linejoin="round" stroke-width="3.16" d="M140.971 79.323c13.167 13.29-14.385 40.449-20.034 40.449-5.649 0-24.522-18.616-23.116-24.524 1.406-5.909 29.41-29.793 43.15-15.925zM44.307 251.674l-2.832 16.271-22.36 12.419-15.868-2.321-2.485-6.814 23.241-16.67 20.304-2.885zM253.426 336.333l-1.016-1.18-.116-3.592-17.847.809-3.824 20.855 28.683 13.488"/>
    <path stroke="#8594AC" stroke-linecap="round" stroke-linejoin="round" stroke-width="3.16" d="M282.475 377.239c16.99 0 30.764-13.772 30.764-30.76 0-16.989-13.774-30.761-30.764-30.761-16.991 0-30.764 13.772-30.764 30.761 0 16.988 13.773 30.76 30.764 30.76zM145.676 42.51c.737 8.86 1.257 20.87.573 25.521 3.8 4.377 17.515 5.504 21.108 1.474-1.166-3.496-1.296-11.254-.939-15.89"/>
    <path stroke="#8594AC" stroke-linecap="round" stroke-linejoin="round" stroke-width="3.16" d="M142.911 23.595C145.112 9.631 155.659-.428 166.99.901c11.674 1.372 19.746 14.35 18.017 28.988-1.729 14.639-12.599 25.372-24.263 24-9.448-1.108-16.537-9.833-17.977-20.885"/>
    <path stroke="#8594AC" stroke-linecap="round" stroke-linejoin="round" stroke-width="3.16" d="M153.555 23.639a6.627 6.627 0 002.48-.67c2.186-1.497.573-4.724 2.186-5.417 1.445-.621 16.283-1.06 26.608 3.457"/>
    <path stroke="#8594AC" stroke-linecap="round" stroke-linejoin="round" stroke-width="3.16" d="M149.6 35.72a6.31 6.31 0 01-1.391.154c-3.819 0-6.916-3.37-6.916-7.492s3.097-7.488 6.916-7.488a6.903 6.903 0 016.284 4.372"/>
    <path stroke="#8594AC" stroke-linecap="round" stroke-linejoin="round" stroke-width="3.16" d="M154.493 25.266c.417.986.63 2.046.627 3.116 0 3.62-2.37 6.64-5.519 7.338"/>
    <path fill="#8594AC" d="M40.114 328.3H14.038v11.726c1.148-1.312 2.733-2.323 4.756-3.034 2.077-.765 4.319-1.148 6.724-1.148 3.881 0 7.134.875 9.758 2.624 2.624 1.695 4.565 3.991 5.822 6.888 1.257 2.897 1.886 6.095 1.886 9.594 0 6.341-1.777 11.371-5.33 15.088-3.553 3.663-8.555 5.494-15.006 5.494-4.373 0-8.173-.765-11.398-2.296-3.225-1.585-5.713-3.772-7.462-6.56C2.038 363.888 1.109 360.663 1 357h13.694c.273 1.859 1.011 3.389 2.214 4.592 1.257 1.203 2.952 1.804 5.084 1.804 2.46 0 4.291-.793 5.494-2.378 1.257-1.585 1.886-3.69 1.886-6.314 0-2.515-.656-4.455-1.968-5.822-1.312-1.367-3.143-2.05-5.494-2.05-1.804 0-3.307.41-4.51 1.23-1.203.765-2.023 1.777-2.46 3.034H1.328V316h38.786v12.3zM50.411 345.766c0 9.075 1.832 16.263 5.494 21.566 3.663 5.303 9.512 7.954 17.548 7.954 7.982 0 13.804-2.651 17.466-7.954 3.718-5.303 5.576-12.491 5.576-21.566 0-9.02-1.858-16.154-5.576-21.402-3.662-5.303-9.484-7.954-17.466-7.954-8.036 0-13.885 2.651-17.548 7.954-3.662 5.248-5.494 12.382-5.494 21.402zm32.144 0c0 5.193-.628 9.211-1.886 12.054-1.202 2.788-3.608 4.182-7.216 4.182-3.662 0-6.122-1.394-7.38-4.182-1.257-2.843-1.886-6.861-1.886-12.054 0-5.139.63-9.102 1.886-11.89 1.258-2.788 3.718-4.182 7.38-4.182 3.608 0 6.014 1.394 7.216 4.182 1.258 2.733 1.886 6.697 1.886 11.89zM103.593 345.766c0 9.075 1.831 16.263 5.494 21.566 3.663 5.303 9.512 7.954 17.548 7.954 7.981 0 13.803-2.651 17.466-7.954 3.717-5.303 5.576-12.491 5.576-21.566 0-9.02-1.859-16.154-5.576-21.402-3.663-5.303-9.485-7.954-17.466-7.954-8.036 0-13.885 2.651-17.548 7.954-3.663 5.248-5.494 12.382-5.494 21.402zm32.144 0c0 5.193-.629 9.211-1.886 12.054-1.203 2.788-3.608 4.182-7.216 4.182-3.663 0-6.123-1.394-7.38-4.182-1.257-2.843-1.886-6.861-1.886-12.054 0-5.139.629-9.102 1.886-11.89 1.257-2.788 3.717-4.182 7.38-4.182 3.608 0 6.013 1.394 7.216 4.182 1.257 2.733 1.886 6.697 1.886 11.89z"/>
  </g>
  <defs>
    <clipPath id="clip0">
      <path fill="#fff" d="M0 0h314v378H0z"/>
    </clipPath>
  </defs>
</svg>
